<svg class="supporter-svg" viewBox="0 0 30.7 29.9">
			<g transform="translate(-1165 -563.652)"><circle cx="1175.2" cy="580.5" r="1.9"></circle><circle cx="1182.9" cy="580.5" r="1.9"></circle><path d="M1194.7 574.8c-.5-.5-1.2-.8-1.9-.9-1.2-5.8-6.3-10.2-12.5-10.3h-.1c-7 0-12.7 5.7-12.8 12.7-1.4.6-2.4 2.1-2.4 3.7 0 1.8 1.1 3.3 2.8 3.8 1.4 5.6 6.6 9.7 12.4 9.7 4 0 7.6-1.9 9.9-4.8h1.8c1.4 0 2.6-1.2 2.6-2.6v-1.8c.7-.6 1.1-1.5 1.1-2.5v-4.7c.1-.8-.2-1.7-.9-2.3zm-5.4 11.8h-8.7c-.3-.5-.9-.8-1.6-.8-1.1 0-1.9.9-1.9 1.9s.9 1.9 1.9 1.9c.6 0 1.2-.3 1.6-.8h6.8c-1.9 1.7-4.4 2.8-7.2 2.8-5.1 0-9.6-3.7-10.6-8.7l-.1-.7-.7-.1c-1-.1-1.7-1-1.7-2 0-.9.7-1.8 1.6-2l.8-.2v-.8c.4-.5 1.8-1.9 6.5-1.4 2.8.3 5.1-.2 6.6-1.6.6-.5 1-1.1 1.3-1.6.5.7 1.1 1.5 1.9 2.1 1 .7 2.1 1.1 3.3 1.2v9.4h1.1c-.4.5-.6 1-.9 1.4zm-2.5-13.7c-1.9-1.3-2.3-3.7-2.3-3.7l-2 .1s0 1.9-1.5 3.2c-1.1 1-2.8 1.4-5.1 1.1-3.1-.4-5.2.1-6.5.7 1-5 5.4-8.7 10.6-8.8h.1c5 0 9.3 3.5 10.4 8.2-1.4.2-2.7-.1-3.7-.8zm5.6 13.3c0 .2-.2.4-.4.4h-.4c.2-.4.4-.9.6-1.4h.2v1zm1.1-4.4c0 .1 0 .5-.4.8-.3.3-.8.4-.8.4h-1.2v-7h1.3c.1 0 .4 0 .7.3h.1c.1.1.2.2.2.3v.1c.1.2.1.4.1.5v4.6z"></path></g>
		</svg>